<svg width="512" height="512" viewBox="0 0 512 512" fill="none" xmlns="http://www.w3.org/2000/svg">
  <defs>
    <linearGradient id="bgGradient" x1="0" y1="0" x2="512" y2="512" gradientUnits="userSpaceOnUse">
      <stop offset="0%" stop-color="#0f172a"/>
      <stop offset="100%" stop-color="#1e293b"/>
    </linearGradient>
    <linearGradient id="mainGradient" x1="100" y1="100" x2="412" y2="412" gradientUnits="userSpaceOnUse">
      <stop offset="0%" stop-color="#22d3ee"/>
      <stop offset="100%" stop-color="#818cf8"/>
    </linearGradient>
    <filter id="glow" x="-20%" y="-20%" width="140%" height="140%">
      <feGaussianBlur stdDeviation="10" result="blur"/>
      <feComposite in="SourceGraphic" in2="blur" operator="over"/>
    </filter>
  </defs>
  
  <!-- Background: Rounded Square -->
  <rect x="0" y="0" width="512" height="512" rx="110" fill="url(#bgGradient)"/>
  
  <!-- T Shape: Minimalist Geometry -->
  <path d="M150 150 H362 A 20 20 0 0 1 382 170 V 200 A 10 10 0 0 1 372 210 H 286 V 362 A 20 20 0 0 1 266 382 H 246 A 20 20 0 0 1 226 362 V 210 H 140 A 10 10 0 0 1 130 200 V 170 A 20 20 0 0 1 150 150 Z" 
        fill="url(#mainGradient)" 
        filter="url(#glow)"/>
        
</svg>
